<svg version="1.1" id="ios7_x5F_arrows_1_" xmlns="http://www.w3.org/2000/svg" x="0" y="0" viewBox="0 0 128 128" style="enable-background:new 0 0 128 128" xml:space="preserve"><style>.st0{display:none}.st1{display:inline}</style><g id="_x34_0_1_"><path d="m64.1 121.6-18.5-18.5 16.6-.4.1-4.5-20.4.5-4.5.1-.1 4.5-.5 20.4 4.5-.1.4-18L64.1 128l25-25.1-3.2-3.2-21.8 21.9zm44.2-37.9L127.9 64l-23-23.1-3.2 3.2L121.6 64l-16.4 16.5-.4-17.3-4.5-.1.5 20.4.1 4.5 4.5.1 20.4.5-.1-4.5-17.4-.4zM85.2 21.2 64.1 0 41.7 22.4l3.2 3.2-.5.5L64.1 6.4l18.1 18.2H64.9v4.5h24.8V4.2h-4.5v17zM32 40.5l-.1-4.5-24.8-.9V40l16.7.4L.2 64l24 24 3.2-3.2L6.6 64l21-21 .4 17.9 4.5.1-.5-20.5z" id="icon_2_"/></g></svg>